HIERARCHY
ROOT Hips
{
  OFFSET 267.745 86.9975 -272.335
  CHANNELS 6 Xposition Yposition Zposition Zrotation Xrotation Yrotation
  JOINT LeftUpLeg
  {
    OFFSET 8.64259 1.95398 -2.38835
    CHANNELS 3 Zrotation Xrotation Yrotation
    JOINT LeftLeg
    {
      OFFSET 43.7702 0 0
      CHANNELS 3 Zrotation Xrotation Yrotation
      JOINT LeftFoot
      {
        OFFSET 40.6238 0 0
        CHANNELS 3 Zrotation Xrotation Yrotation
        JOINT LeftToeBase
        {
          OFFSET 12.7242 0 0
          CHANNELS 3 Zrotation Xrotation Yrotation
          End Site
          {
            OFFSET 0 0 0
          }
        }
      }
    }
  }
  JOINT RightUpLeg
  {
    OFFSET -8.2249 1.95398 -2.59336
    CHANNELS 3 Zrotation Xrotation Yrotation
    JOINT RightLeg
    {
      OFFSET 43.5653 0 0
      CHANNELS 3 Zrotation Xrotation Yrotation
      JOINT RightFoot
      {
        OFFSET 40.6238 0 0
        CHANNELS 3 Zrotation Xrotation Yrotation
        JOINT RightToeBase
        {
          OFFSET 12.7242 0 0
          CHANNELS 3 Zrotation Xrotation Yrotation
          End Site
          {
            OFFSET 0 0 0
          }
        }
      }
    }
  }
  JOINT Spine
  {
    OFFSET 0.165834 0.87714 6.61349
    CHANNELS 3 Zrotation Xrotation Yrotation
    JOINT Spine1
    {
      OFFSET 7.38963 1.71661e-005 0
      CHANNELS 3 Zrotation Xrotation Yrotation
      JOINT Spine2
      {
        OFFSET 11.9445 1.14441e-005 0
        CHANNELS 3 Zrotation Xrotation Yrotation
        JOINT Spine3
        {
          OFFSET 14.7254 4.19617e-005 0
          CHANNELS 3 Zrotation Xrotation Yrotation
          JOINT Spine4
          {
            OFFSET 10.9679 0 0
            CHANNELS 3 Zrotation Xrotation Yrotation
            JOINT RightShoulder
            {
              OFFSET 2.46616 -1.6653 3.69651
              CHANNELS 3 Zrotation Xrotation Yrotation
              JOINT RightArm
              {
                OFFSET 13.0012 0 0
                CHANNELS 3 Zrotation Xrotation Yrotation
                JOINT RightForeArm
                {
                  OFFSET 28.7848 1.52588e-005 0
                  CHANNELS 3 Zrotation Xrotation Yrotation
                  JOINT RightHand
                  {
                    OFFSET 26.5688 1.52588e-005 0
                    CHANNELS 3 Zrotation Xrotation Yrotation
                    End Site
                    {
                      OFFSET 0 0 0
                    }
                  }
                }
              }
            }
            JOINT LeftShoulder
            {
              OFFSET 2.38034 -1.29275 -3.7523
              CHANNELS 3 Zrotation Xrotation Yrotation
              JOINT LeftArm
              {
                OFFSET 16.3182 6.10352e-005 0
                CHANNELS 3 Zrotation Xrotation Yrotation
                JOINT LeftForeArm
                {
                  OFFSET 27.0901 0 0
                  CHANNELS 3 Zrotation Xrotation Yrotation
                  JOINT LeftHand
                  {
                    OFFSET 24.5451 1.52588e-005 0
                    CHANNELS 3 Zrotation Xrotation Yrotation
                    End Site
                    {
                      OFFSET 0 0 0
                    }
                  }
                }
              }
            }
            JOINT Neck
            {
              OFFSET 5.0226 -0.0266342 0
              CHANNELS 3 Zrotation Xrotation Yrotation
              JOINT Head
              {
                OFFSET 6.69364 2.86102e-005 0
                CHANNELS 3 Zrotation Xrotation Yrotation
                End Site
                {
                  OFFSET 0 0 0
                }
              }
            }
          }
        }
      }
    }
  }
}
MOTION
Frames:	15
Frame Time:	0.0416667
11.5159 73.737 -299.228 -35.7934 45.2775 15.2202 48.5111 -8.73651 -102.062 -100.07 7.90678 8.6886 89.0245 -45.1484 46.6467 77.7168 -6.79608 -3.73819 30.6696 -11.9764 -75.9589 -105.189 43.909 -7.47039 164.897 -20.9594 82.9219 71.2408 17.3677 88.7696 1.40737 -12.8538 -88.6484 52.5999 3.30199 0.782126 40.933 3.3332 0.635871 18.3721 2.91418 1.73906 38.3847 2.91418 1.73905 134.01 -72.3964 -44.2261 167.995 -59.6746 163.056 -46.9803 -40.5408 -78.1712 34.9511 13.6792 35.9872 -116.471 -40.3833 34.9477 22.9153 11.0225 89.8756 74.8376 56.7394 -106.448 37.5763 1.14566 -0.969704 -57.0738 9.16241 -36.0652 -173.552 15.0843 -12.6986 
11.4578 73.5624 -300.365 -36.7511 46.1037 15.4577 49.7825 -9.01983 -101.637 -100.856 7.6331 8.6157 89.5568 -46.4568 47.2148 79.1331 -6.19116 -1.30168 31.9254 -12.0718 -74.7286 -104.643 47.4011 -9.01245 169.169 -20.03 85.1894 75.7168 17.3572 81.6213 1.48675 -12.935 -88.6712 52.7672 3.40684 0.64139 41.1006 3.43177 0.490668 18.5365 3.05645 1.63651 38.5492 3.05644 1.6365 135.142 -72.6854 -43.0211 168.64 -57.6298 164.767 -46.756 -38.2407 -76.9209 35.6874 14.0917 36.2898 -116.324 -40.1341 34.9926 22.2762 10.673 89.8752 71.9965 56.0966 -104.044 35.2798 0.759243 -1.88707 -56.925 8.90782 -36.127 -173.129 14.6698 -12.8229 
11.324 73.0195 -303.685 -39.42 48.4002 16.3191 53.0698 -9.75038 -100.243 -103.083 7.42773 8.28157 91.0242 -49.8388 48.9397 82.6913 -4.13027 5.55629 35.139 -12.1376 -71.5255 -102.713 54.9374 -13.5839 -178.629 -19.9613 89.7862 88.0299 13.7072 61.1774 1.68609 -13.1546 -88.7259 53.2204 3.66977 0.289509 41.5547 3.67895 0.127495 18.9825 3.4129 1.38031 38.9951 3.41289 1.3803 138.581 -73.4974 -39.3892 169.391 -51.775 168.761 -46.6723 -31.6692 -73.6352 37.8007 15.2701 37.0631 -115.895 -39.4108 35.1271 20.4437 9.65893 89.8286 64.7795 53.9211 -98.1051 29.1949 -0.0195852 -4.13652 -56.5235 8.1271 -36.2934 -171.937 13.4281 -13.1438 
11.1884 72.0834 -309.055 -43.3814 51.737 18.1332 57.1778 -10.6371 -97.486 -106.114 6.86347 7.37877 90.2337 -53.9843 48.3245 86.7141 -0.260243 15.6988 39.0437 -11.6867 -67.5015 -99.793 61.383 -20.2477 -159.611 -26.0723 95.1618 101.36 2.15266 35.0892 2.27794 -16.2379 -88.4332 59.4236 4.52718 0.0257183 47.762 4.52392 -0.174036 25.1587 4.30948 1.38798 45.1714 4.30947 1.38797 144.624 -74.7123 -33.0893 168.342 -42.8395 173.388 -47.8239 -21.6462 -68.8661 41.0715 17.0908 38.0423 -115.198 -38.2419 35.3527 17.5729 8.04035 89.6082 55.8529 49.8854 -91.2642 21.1287 -0.533773 -6.52154 -55.9948 6.71219 -36.5243 -170.129 11.2784 -13.5188 
11.0899 70.7999 -316.31 -48.2909 55.6068 21.1768 60.7322 -11.4851 -92.7013 -109.728 7.94112 5.68761 85.4885 -56.9218 44.1389 89.4684 5.16128 27.7445 42.3778 -10.3186 -63.8274 -95.2241 66.7985 -28.9904 -136.004 -37.8596 102.959 109.501 -13.1189 12.6772 -1.84064 25.9726 -90.5214 -25.1406 -3.45022 -2.36227 -36.8089 -3.5508 -2.20807 -59.3497 -2.58113 -3.28979 -39.3371 -2.58111 -3.2898 153.918 -76.1462 -23.5492 164.473 -32.128 177.985 -51.0391 -9.71184 -62.9045 45.0981 19.3671 39.0378 -114.241 -36.6373 35.6698 13.8424 5.90208 89.0092 47.3876 44.1625 -85.6753 12.9426 -0.55225 -7.803 -55.5875 4.38374 -36.7725 -167.874 7.96225 -13.6873 
11.0365 69.2789 -325.249 -54.1825 59.6443 25.7133 62.8058 -11.8433 -85.6173 -113.054 10.8048 3.45245 74.3477 -56.7057 34.342 89.9694 11.3648 41.0292 44.4018 -7.86246 -61.1241 -59.8269 76.8888 -67.4534 -119.035 -50.0124 103.833 113.81 -27.1389 -4.28319 -1.89999 25.638 -90.5073 -24.4738 -3.57349 -2.34818 -36.1417 -3.67334 -2.18855 -58.6848 -2.70292 -3.31346 -38.6722 -2.70292 -3.31345 167.392 -77.5093 -9.922 157.597 -21.3742 -177.427 -56.6607 2.47072 -55.7448 49.3212 21.8771 40.0377 -113.028 -34.5951 36.0778 9.43597 3.35408 87.799 40.255 37.3575 -82.1634 5.82843 -0.307116 -7.3474 -55.7945 0.551151 -37.0038 -165.29 2.88622 -13.1817 
10.93 67.6242 -335.599 -61.9087 62.8979 31.1431 63.7987 -10.2397 -76.9842 -115.652 13.1572 1.06747 58.1207 -51.6637 19.6725 87.6692 17.2832 55.3333 42.9868 -3.90592 -58.9257 8.72854 72.9172 -137.018 -123.188 -67.2589 90.5947 118.089 -38.9552 -16.1077 -2.13598 25.3745 -90.4758 -23.9547 -4.01706 -2.42488 -35.62 -4.11991 -2.24556 -58.1804 -3.10247 -3.52015 -38.1678 -3.10246 -3.52015 -174.395 -78.3717 8.26775 148.056 -12.3728 -172.842 -64.5166 13.2043 -47.5616 53.2041 24.4205 41.1326 -111.567 -32.1139 36.5746 4.54647 0.649427 85.9427 34.4652 30.2017 -80.62 0.325239 -0.112201 -5.2091 -57.7873 -6.17913 -37.2954 -162.23 -5.41357 -10.9394 
12.4724 65.6206 -347.651 -80.1895 73.1789 67.0728 52.9068 -29.5008 -77.3482 -114.934 7.74332 5.153 40.3725 -46.0135 4.96121 83.3162 21.0697 68.1721 68.2593 -3.90833 -64.0575 10.2226 34.1819 -142.227 100.107 -78.7812 -42.9362 127.322 -50.159 -21.6908 1.41028 24.5068 -91.985 -22.148 2.27886 -2.98638 -33.8239 2.14546 -3.08365 -56.3327 3.0699 -2.16435 -36.32 3.06991 -2.16433 -152.86 -78.2425 29.5278 136.651 -6.40973 -168.681 -73.8725 21.3898 -39.1368 56.44 26.8586 42.3741 -109.877 -29.2125 37.1549 -0.614736 -2.32416 83.1964 29.7342 23.3562 -80.5718 -3.42286 -0.114977 -1.85861 -65.083 -19.3846 -38.7343 -157.17 -20.6538 -3.54881 
12.9862 63.6951 -359.461 -85.1448 76.4522 74.3826 46.6552 -26.1822 -77.6561 -115.245 -0.344046 3.11698 33.7205 -35.4443 -7.36124 80.4442 22.4163 75.0311 52.3162 -2.91223 -69.679 13.0888 43.5423 -145.684 72.5759 -48.7367 -57.1018 150.033 -58.1771 -12.7399 2.00553 24.5722 -92.8398 -22.2605 3.23712 -4.26474 -33.9348 3.04648 -4.40285 -56.4691 4.36856 -3.09547 -36.4564 4.36856 -3.09548 -131.807 -76.8493 50.0064 124.452 -3.72772 -165.682 -83.7009 27.0281 -31.4812 59.0037 29.1191 43.7167 -107.995 -25.9507 37.8105 -5.80736 -5.09895 79.5664 25.7593 17.2965 -81.4975 -5.50119 -0.268654 2.1454 -83.3085 -39.1807 -47.342 -142.974 -42.3645 16.2629 
13.4477 61.8826 -371.389 -82.3333 80.6356 71.3412 39.5792 -16.9465 -76.4718 -114.875 -10.3804 1.92261 33.9733 -28.2134 -18.6816 81.5493 22.8871 74.4766 37.6007 3.01905 -72.1613 16.035 51.7499 -150.546 63.5768 -17.8044 -46.236 -174.489 -58.8814 9.51907 2.15553 24.7246 -93.7734 -22.5619 3.35692 -5.98583 -34.2429 3.09072 -6.12716 -56.7382 4.99885 -4.70378 -36.7255 4.99888 -4.70379 -114.318 -74.3182 66.6135 112.348 -3.63174 -164.419 -93.0516 30.669 -25.2728 61.0111 31.1721 45.0719 -105.978 -22.4274 38.5347 -10.8156 -7.59627 75.1643 22.3185 12.2783 -82.9531 -6.11692 -0.440806 6.35353 -115.615 -52.8868 -71.23 -109.721 -54.9102 55.2195 
14.5488 59.2864 -384.758 -74.4051 85.7536 64.3272 31.0591 -8.40204 -76.7182 -114.273 -21.3043 1.69969 35.5529 -24.9593 -31.3308 85.2541 22.5652 68.9844 25.9079 13.5849 -74.8832 18.3053 54.4834 -155.49 51.6761 11.7588 -27.1483 -154.847 -21.1792 23.238 2.60307 24.7552 -94.9562 -22.6188 3.98697 -8.0102 -34.3094 3.63178 -8.17652 -56.7542 6.20546 -6.45064 -36.7416 6.20547 -6.45064 -100.904 -70.985 78.8749 100.755 -4.97241 -164.985 -101.419 33.0106 -20.6169 62.5957 33.0093 46.3641 -103.887 -18.7595 39.3251 -15.4659 -9.75103 70.1516 19.2739 8.3698 -84.594 -5.5447 -0.502695 10.4503 -177.386 -47.3293 -118.794 -59.9439 -39.2979 110.302 
16.0406 57.1657 -399.907 58.3086 88.1928 -67.0572 22.7201 -0.923309 -77.3895 -112.407 -31.031 1.71058 35.012 -23.8311 -43.3972 88.7947 21.1777 62.2304 14.9315 27.8146 -77.4575 21.4248 55.6933 -158.488 33.2818 30.943 -2.67532 -107.847 -70.0067 49.6307 3.20633 24.6812 -96.2545 -22.4625 4.88317 -10.1734 -34.1656 4.43317 -10.3756 -56.5467 7.70542 -8.25406 -36.534 7.70543 -8.25405 -90.8475 -67.1763 87.592 89.7058 -6.53712 -167.025 -108.823 34.5426 -17.0293 63.8615 34.6297 47.5456 -101.779 -15.0625 40.183 -19.6583 -11.5891 64.722 16.5462 5.5025 -86.1741 -4.08672 -0.371433 14.2337 -37.4688 -3.60173 -48.9441 -171.005 -6.40339 -23.5551 
17.7413 55.7904 -416.403 84.3732 82.6819 -91.6449 15.0872 5.23032 -78.3105 -109.762 -38.814 1.6675 32.7616 -23.1343 -53.061 90.9215 19.2216 56.3343 4.37236 41.9311 -78.3674 25.9727 57.0882 -159.611 13.2016 38.7442 21.033 -86.4256 -69.5126 66.9204 3.89715 24.5091 -97.5874 -22.1047 5.9297 -12.3708 -33.8234 5.38396 -12.6147 -56.1295 9.35636 -10.0503 -36.1169 9.35637 -10.0503 -83.382 -63.1566 93.6458 79.1008 -7.27697 -169.95 -115.67 35.3576 -13.6633 64.8727 36.031 48.5909 -99.703 -11.4368 41.1118 -23.3732 -13.167 59.0404 14.0937 3.52314 -87.5359 -2.0264 -0.0233701 17.5973 -27.1745 -3.56596 -49.4171 -148.118 -4.79224 -27.8616 
19.5496 55.0804 -433.697 87.7044 76.9307 -93.4491 8.20636 10.256 -79.4118 -106.973 -44.7381 1.43729 29.9611 -22.2551 -60.013 91.7849 17.2633 51.7737 -6.00025 54.0598 -77.581 32.0052 58.2636 -160.058 -1.87644 39.5828 38.4497 -83.5426 -65.2425 66.0636 10.5789 18.5618 -104.135 -9.56659 16.7313 -24.2338 -21.3706 15.6817 -24.9015 -43.6391 23.1358 -18.2653 -23.6265 23.1359 -18.2653 -41.9094 -46.8074 120.281 -34.76 -44.3072 43.1296 -39.6618 9.73635 -110.536 58.1491 39.0988 59.45 -64.0119 45.6682 20.1144 -50.9857 -10.6126 29.8004 13.2942 3.18805 -85.5321 0.439042 0.524861 20.3085 -12.1363 -24.8543 -95.0666 -148.372 1.64168 -40.2343 
21.364 54.9555 -451.22 88.5647 71.0538 -92.7561 1.89956 14.5026 -80.6584 -104.284 -49.1641 0.959551 27.262 -21.1149 -64.6399 91.871 15.5785 48.3875 -16.6478 64.2125 -75.4128 38.9028 59.3453 -160.236 -10.6574 38.1794 48.9403 -76.2227 -63.5039 70.1375 10.4268 18.0591 -104.601 -8.5618 16.2152 -25.383 -20.3946 15.1211 -26.0207 -42.4283 22.9572 -19.5853 -22.4157 22.9572 -19.5853 -37.5075 -42.6556 121.944 -37.2784 -43.834 51.8147 -37.319 11.7199 -119.422 58.5759 40.1431 60.4428 -66.075 42.9724 21.6985 -51.0221 -10.8541 26.4091 11.1601 2.18834 -86.4883 3.01764 1.21203 22.7802 -20.8161 -20.5134 -98.6781 -146.069 -7.55676 -35.5487 
